# xmcd
#
# Track frame offsets:
#	150
#	4687
#	9224
#	13761
#	18299
#	22836
#	27373
#	31910
#	36447
#	40984
#	45521
#	50058
#	54595
#	59132
#	63669
#	68206
#	72743
#	77280
#	81817
#	86354
#	90891
#	95428
#	99965
#	104502
#	109039
#
# Disc length: 1513 seconds
#
# Revision: 1
# Processed by: cddbd v1.5PL3 Copyright (c) Steve Scherf et al.
# Submitted via: CDex 1.50Beta5
#
DISCID=3505e719
DTITLE=Father Harry - Winter 2001
DYEAR=2001
DGENRE=Gospel
TTITLE0=Tip
TTITLE1=Deer
TTITLE2=Bunny
TTITLE3=Photo
TTITLE4=Worker
TTITLE5=Religion
TTITLE6=Lightening
TTITLE7=Hot
TTITLE8=Delay
TTITLE9=Right One
TTITLE10=Failure
TTITLE11=The "One"
TTITLE12=Friends
TTITLE13=Denial
TTITLE14=Locks
TTITLE15=Thanks
TTITLE16=Bottle
TTITLE17=Burden
TTITLE18=Undone
TTITLE19=Fly
TTITLE20=Chickens
TTITLE21=Get Going
TTITLE22=Direction
TTITLE23=Breakup
TTITLE24=Be Yourself
EXTD=
EXTT0=
EXTT1=
EXTT2=
EXTT3=
EXTT4=
EXTT5=
EXTT6=
EXTT7=
EXTT8=
EXTT9=
EXTT10=
EXTT11=
EXTT12=
EXTT13=
EXTT14=
EXTT15=
EXTT16=
EXTT17=
EXTT18=
EXTT19=
EXTT20=
EXTT21=
EXTT22=
EXTT23=
EXTT24=
PLAYORDER=
